<?xml version="1.0" standalone="no"?>
<!DOCTYPE svg PUBLIC "-//W3C//DTD SVG 20010904//EN"
 "http://www.w3.org/TR/2001/REC-SVG-20010904/DTD/svg10.dtd">
<svg version="1.0" xmlns="http://www.w3.org/2000/svg"
 width="1024.000000pt" height="1024.000000pt" viewBox="0 0 1024.000000 1024.000000"
 preserveAspectRatio="xMidYMid meet">
<metadata>
Created by potrace 1.14, written by Peter Selinger 2001-2017
</metadata>
<g transform="translate(0.000000,1024.000000) scale(0.100000,-0.100000)"
fill="#000000" stroke="none">
<path d="M10 9436 c0 -2 35 -30 78 -62 42 -33 79 -62 82 -65 3 -3 45 -36 95
-74 50 -38 127 -99 173 -135 46 -36 94 -72 106 -80 31 -21 108 -81 127 -99 25
-25 59 -51 64 -51 5 0 182 -136 229 -176 15 -13 30 -24 32 -24 4 0 26 -18 79
-62 18 -16 38 -28 44 -28 6 0 11 -4 11 -8 0 -5 30 -30 68 -57 37 -27 69 -52
72 -55 3 -3 50 -40 105 -83 300 -232 361 -279 375 -290 8 -7 51 -39 95 -72 76
-57 115 -88 139 -110 6 -6 36 -28 66 -50 30 -22 57 -42 60 -45 3 -3 46 -37 95
-74 50 -38 92 -73 93 -78 2 -4 8 -8 13 -8 5 0 17 -7 26 -15 10 -8 77 -60 148
-115 72 -55 141 -109 155 -120 14 -11 38 -30 54 -43 16 -12 38 -30 48 -39 10
-10 21 -18 26 -18 4 0 19 -11 34 -25 15 -14 32 -25 38 -25 5 0 10 -4 10 -8 0
-5 21 -24 48 -42 26 -19 49 -36 52 -39 3 -4 34 -28 70 -56 36 -27 70 -54 77
-60 7 -5 19 -16 27 -22 8 -7 20 -13 26 -13 5 0 10 -4 10 -9 0 -4 19 -21 42
-37 24 -16 52 -37 63 -47 11 -10 76 -61 145 -113 69 -52 134 -103 145 -112 11
-9 54 -42 95 -73 41 -31 85 -65 97 -75 11 -11 31 -26 43 -34 12 -8 32 -23 43
-32 28 -22 25 -20 132 -103 50 -38 92 -72 95 -75 3 -4 12 -11 21 -16 9 -5 33
-22 54 -39 21 -16 65 -51 99 -78 33 -26 70 -54 81 -63 11 -9 59 -46 108 -82
48 -36 87 -69 87 -74 0 -4 5 -8 11 -8 6 0 32 -17 58 -38 25 -21 87 -69 136
-107 50 -38 95 -73 100 -77 6 -5 28 -22 50 -38 22 -16 47 -36 55 -43 8 -7 33
-27 55 -43 22 -16 46 -34 55 -41 21 -17 260 -202 300 -233 18 -14 127 -98 242
-187 115 -90 212 -163 215 -163 3 0 18 -12 32 -27 15 -16 30 -29 35 -29 4 -1
18 -10 30 -20 12 -11 48 -39 81 -64 33 -25 62 -48 65 -51 5 -6 101 -80 230
-177 41 -31 80 -61 86 -67 6 -5 26 -21 44 -35 18 -14 78 -60 133 -103 l101
-77 35 32 c19 18 58 56 87 83 28 28 105 100 169 160 65 61 142 133 171 160 29
28 107 102 175 165 67 63 155 147 196 186 40 39 73 70 73 68 0 -1 24 20 52 48
91 87 199 189 332 313 70 66 152 143 181 171 30 28 111 104 181 170 69 65 148
139 174 164 26 25 105 99 175 165 71 66 152 143 180 170 29 28 75 71 104 98
49 46 50 48 28 56 -12 5 -110 37 -217 71 -107 34 -208 67 -225 73 -16 7 -32
12 -35 12 -7 0 -92 26 -115 35 -43 17 -61 23 -80 27 -11 1 -29 7 -40 12 -23
11 -180 62 -198 65 -7 1 -25 7 -42 13 -77 29 -82 31 -105 35 -8 2 -19 6 -25 9
-5 4 -34 12 -62 20 -29 7 -53 17 -53 23 0 5 -3 7 -6 3 -3 -3 -31 4 -62 15 -32
10 -64 21 -72 23 -8 2 -100 31 -205 65 -104 34 -206 67 -225 73 -19 6 -39 15
-44 19 -6 4 -20 8 -31 8 -12 0 -25 3 -29 7 -3 4 -13 8 -20 9 -8 1 -40 11 -72
22 -33 11 -201 66 -374 122 -173 56 -322 104 -330 107 -8 4 -17 7 -20 8 -40
11 -188 59 -195 64 -5 3 -14 6 -20 6 -5 1 -17 4 -25 7 -8 4 -157 52 -330 108
-173 56 -339 110 -368 121 -28 10 -53 19 -55 18 -1 0 -9 2 -17 4 -8 3 -40 13
-70 22 -30 10 -64 21 -75 26 -28 11 -427 140 -445 144 -8 2 -33 10 -55 19 -22
8 -51 18 -65 20 -14 3 -113 35 -220 72 -107 36 -202 67 -210 69 -8 2 -15 4
-15 5 0 1 -7 3 -15 5 -8 2 -120 38 -249 80 -129 43 -239 78 -245 80 -6 1 -20
5 -31 9 -77 29 -95 36 -98 35 -1 -1 -163 51 -360 116 -198 64 -364 118 -370
120 -7 1 -19 5 -27 8 -8 3 -87 29 -175 57 -88 29 -169 56 -180 61 -11 5 -29
11 -40 12 -11 2 -27 6 -35 10 -8 3 -24 8 -35 13 -11 4 -25 8 -32 10 -6 1 -29
8 -50 15 -21 7 -41 12 -45 11 -5 -1 -8 2 -8 6 0 4 -8 9 -17 9 -10 1 -121 37
-248 78 -126 42 -234 78 -240 79 -12 3 -174 55 -195 63 -8 4 -17 7 -20 7 -7 2
-267 87 -455 149 -82 27 -154 50 -160 52 -5 1 -17 5 -25 8 -8 3 -33 11 -55 17
-22 6 -49 15 -60 20 -34 14 -219 73 -232 73 -7 0 -13 3 -13 7 0 4 -6 7 -12 7
-7 0 -71 19 -143 42 -144 47 -146 48 -160 51 -5 1 -18 6 -27 11 -10 5 -18 8
-18 5z"/>
<path d="M47 8998 c25 -62 49 -122 53 -133 4 -11 15 -36 24 -57 9 -20 16 -38
16 -41 0 -2 7 -22 16 -43 9 -22 16 -41 16 -44 0 -3 9 -23 21 -45 11 -22 19
-42 19 -45 -2 -4 166 -435 188 -485 5 -11 19 -45 30 -75 11 -30 24 -64 29 -75
27 -65 38 -93 46 -115 1 -3 5 -14 10 -25 4 -11 30 -76 57 -145 27 -69 57 -145
68 -170 10 -25 30 -76 45 -115 15 -38 31 -79 36 -90 5 -11 18 -45 29 -75 11
-30 25 -64 29 -75 5 -11 33 -81 61 -155 29 -74 59 -148 66 -165 34 -80 76
-191 77 -202 0 -7 4 -13 9 -13 4 0 7 -3 6 -7 0 -5 2 -17 7 -28 4 -11 21 -54
37 -95 16 -41 32 -84 37 -95 5 -11 13 -31 19 -45 5 -14 21 -53 35 -87 14 -33
23 -64 20 -67 -4 -3 -1 -6 5 -6 7 0 12 -7 12 -15 0 -8 11 -39 24 -70 14 -30
22 -55 18 -55 -3 0 -1 -5 6 -12 7 -7 12 -20 12 -30 0 -10 5 -18 10 -18 6 0 9
-3 8 -7 0 -5 2 -17 7 -28 4 -11 21 -56 38 -100 16 -44 36 -94 43 -110 15 -36
31 -78 32 -85 1 -3 21 -53 46 -112 24 -59 41 -109 38 -112 -3 -4 0 -6 6 -6 7
0 12 -5 12 -12 0 -10 185 -489 210 -543 5 -11 23 -58 41 -104 17 -45 37 -95
45 -110 8 -14 14 -32 14 -39 0 -7 4 -20 9 -30 8 -15 21 -46 26 -62 1 -3 9 -23
19 -45 10 -22 19 -44 20 -50 1 -5 14 -39 29 -75 56 -136 297 -751 303 -775 3
-14 10 -25 15 -25 5 0 9 -8 9 -18 0 -10 9 -37 20 -60 11 -22 20 -46 20 -52 0
-10 32 -86 51 -122 5 -10 9 -22 9 -27 0 -4 9 -28 19 -52 11 -24 20 -47 20 -52
0 -4 8 -21 16 -37 8 -16 16 -33 16 -37 1 -5 8 -24 16 -43 8 -19 16 -39 17 -45
1 -5 10 -28 20 -50 10 -22 19 -44 20 -50 2 -13 55 -145 68 -169 5 -10 11 -26
13 -36 2 -10 12 -37 23 -61 11 -24 23 -55 27 -69 4 -14 12 -30 17 -36 5 -7 11
-21 13 -33 3 -18 19 -59 47 -116 5 -12 10 -27 12 -35 2 -8 8 -26 13 -40 6 -14
36 -90 68 -170 31 -80 63 -159 71 -177 8 -17 14 -33 14 -36 0 -2 8 -22 17 -43
9 -22 17 -41 18 -44 3 -8 16 -43 25 -65 5 -11 24 -60 43 -110 46 -120 50 -129
52 -135 1 -3 6 -14 10 -25 29 -69 126 -313 129 -325 2 -8 16 -44 31 -80 45
-107 51 -122 75 -187 12 -35 28 -64 34 -64 6 -1 178 -3 381 -4 204 -2 386 -4
405 -4 19 0 55 -1 80 -1 24 -1 46 -3 49 -5 2 -3 10 0 17 6 8 7 14 7 19 -1 4
-7 12 -7 24 0 10 5 21 7 24 4 5 -6 936 -13 2129 -17 313 -1 568 -6 568 -10 0
-5 5 -5 12 -1 13 8 165 7 179 -1 4 -3 10 -2 13 3 3 5 28 6 56 2 28 -4 53 -3
56 2 3 5 10 6 15 3 5 -4 330 -8 721 -10 392 -3 1052 -7 1466 -10 l753 -4 -5
27 c-4 15 -9 38 -11 52 -3 14 -9 48 -15 75 -6 28 -12 59 -14 70 -1 11 -8 45
-14 75 -6 30 -14 69 -17 85 -3 17 -8 39 -10 50 -6 30 -15 76 -21 115 -3 19 -8
38 -10 41 -2 4 -6 24 -10 45 -6 41 -10 67 -20 112 -3 15 -7 36 -9 47 -2 11 -6
31 -9 45 -4 14 -9 41 -11 60 -3 19 -8 46 -11 60 -3 14 -8 36 -11 50 -2 14 -10
57 -18 95 -8 39 -16 81 -19 95 -3 14 -7 34 -9 45 -2 11 -7 36 -11 55 -3 19 -8
46 -11 60 -3 14 -8 40 -11 59 -3 19 -10 44 -14 57 -5 12 -6 24 -4 27 3 3 1 22
-5 43 -5 22 -12 50 -15 64 -18 92 -48 249 -52 270 -2 14 -9 45 -14 70 -5 25
-12 59 -14 75 -2 17 -5 31 -6 33 -4 3 -6 13 -15 72 -5 30 -9 57 -10 60 -1 3
-4 19 -8 35 -8 34 -15 66 -22 110 -3 17 -8 37 -10 45 -2 8 -7 35 -10 60 -4 24
-8 47 -10 50 -2 3 -6 25 -10 50 -4 25 -8 47 -10 50 -2 3 -6 26 -10 50 -4 25
-17 95 -29 155 -13 61 -24 117 -24 125 0 8 -10 56 -20 105 -11 50 -23 110 -27
135 -4 24 -8 48 -11 51 -2 4 -6 22 -9 40 -2 19 -7 45 -10 59 -3 14 -8 39 -10
55 -3 17 -8 37 -10 45 -5 16 -14 69 -20 110 -2 14 -11 59 -20 100 -9 41 -18
86 -21 100 -2 14 -7 41 -10 60 -3 19 -8 46 -10 60 -2 14 -7 36 -11 50 -3 14
-7 30 -9 35 -1 6 -5 26 -8 45 -10 53 -25 132 -31 160 -4 23 -20 100 -31 160
-3 14 -14 72 -25 129 -10 57 -21 106 -23 110 -2 3 -7 29 -10 56 -4 28 -9 57
-11 65 -2 8 -6 26 -9 40 -2 14 -9 45 -14 70 -5 25 -10 52 -10 60 -1 8 -6 38
-12 65 -6 28 -13 61 -16 75 -2 14 -7 36 -10 50 -3 14 -7 32 -9 40 -1 8 -6 33
-10 55 -4 22 -9 47 -10 55 -1 8 -7 40 -13 70 -11 50 -17 80 -27 135 -3 11 -6
29 -9 40 -2 11 -5 28 -5 38 -1 9 -5 17 -11 17 -5 0 -18 -8 -28 -17 -17 -16
-164 -150 -218 -198 -12 -11 -55 -49 -95 -85 -40 -36 -86 -77 -101 -92 -15
-16 -29 -28 -31 -28 -2 0 -28 -22 -57 -50 -29 -28 -58 -50 -62 -50 -5 0 -6 -4
-3 -10 3 -5 2 -10 -3 -10 -12 0 -17 -5 -270 -235 -30 -27 -70 -63 -89 -80 -19
-16 -52 -45 -72 -65 -21 -19 -68 -62 -105 -95 -37 -33 -78 -69 -90 -80 -53
-47 -201 -182 -222 -202 -13 -13 -26 -23 -29 -23 -3 0 -23 -17 -43 -37 -21
-21 -75 -72 -122 -113 -46 -41 -91 -82 -100 -90 -9 -8 -47 -42 -84 -75 -37
-33 -82 -73 -100 -90 -104 -95 -219 -198 -271 -245 -33 -29 -67 -60 -76 -69
-30 -29 -152 -136 -168 -147 -13 -10 -31 0 -101 52 -47 35 -89 67 -95 72 -5 4
-84 64 -175 132 -91 68 -166 127 -168 132 -2 4 -10 8 -17 8 -7 0 -15 3 -17 8
-1 4 -57 47 -123 97 -66 49 -124 93 -130 97 -78 63 -207 158 -214 158 -5 0
-11 4 -13 8 -1 5 -21 22 -43 38 -23 16 -47 35 -55 42 -8 7 -58 44 -110 83 -52
38 -110 82 -129 97 -18 15 -41 31 -50 36 -9 6 -27 20 -41 33 -14 13 -29 23
-34 23 -5 0 -14 6 -20 13 -10 12 -212 167 -269 207 -38 26 -146 107 -161 121
-31 28 -45 39 -52 39 -3 0 -19 10 -34 23 -16 12 -39 30 -52 40 -12 10 -36 29
-53 42 -16 13 -95 72 -175 132 -80 59 -148 112 -152 118 -4 5 -8 6 -8 2 0 -4
-11 3 -24 17 -13 15 -26 26 -30 26 -4 0 -30 18 -59 40 -29 23 -62 48 -75 58
-12 9 -28 22 -35 27 -6 6 -37 28 -67 50 -30 22 -60 44 -66 50 -7 5 -24 19 -40
30 -15 11 -33 26 -40 33 -7 6 -15 12 -18 12 -3 0 -14 7 -23 15 -29 23 -209
159 -233 175 -12 8 -28 20 -34 25 -6 6 -65 51 -131 100 -66 50 -122 92 -125
95 -3 3 -86 66 -185 140 -99 74 -182 138 -183 142 -2 4 -10 8 -17 8 -7 0 -15
3 -17 8 -1 4 -84 68 -183 142 -99 74 -182 137 -185 140 -3 3 -21 17 -40 30
-19 13 -37 27 -40 30 -3 3 -44 34 -92 70 -49 35 -88 68 -88 72 0 4 -6 8 -13 8
-7 0 -31 15 -53 33 -21 18 -57 46 -79 62 -22 16 -49 37 -59 47 -11 10 -23 18
-26 18 -4 0 -18 9 -31 21 -13 12 -44 35 -69 52 -25 17 -58 44 -75 59 -16 15
-34 28 -38 28 -4 0 -20 12 -35 26 -15 14 -39 33 -54 42 -16 9 -28 20 -28 24 0
4 -6 8 -13 8 -7 0 -30 15 -50 33 -20 17 -68 55 -106 82 -39 28 -71 53 -71 58
0 4 -6 7 -14 7 -8 0 -16 3 -18 8 -1 4 -39 34 -83 67 -44 33 -84 63 -90 68 -16
13 -159 120 -189 142 -16 11 -47 35 -70 53 -54 43 -57 44 -87 64 -14 9 -32 23
-40 30 -8 7 -39 31 -69 53 -30 22 -62 45 -70 52 -8 7 -42 32 -75 57 -33 25
-64 49 -70 53 -64 51 -523 393 -527 393 -3 0 15 -51 39 -112z"/>
</g>
</svg>
