<svg width="141" height="48" viewBox="0 0 141 48" fill="none" xmlns="http://www.w3.org/2000/svg">
<g clip-path="url(#clip0_60_540)">
<path d="M132.35 10.1772H130.651V9.56961H134.805V10.1772H133.106V15.1899H132.388V10.1772H132.35Z" fill="#E32C26"/>
<path d="M140.131 12.7215C140.093 11.924 140.056 10.9747 140.056 10.2911H140.018C139.829 10.9367 139.602 11.6582 139.3 12.4177L138.318 15.1519H137.752L136.845 12.4557C136.581 11.6582 136.354 10.9367 136.203 10.2532C136.203 10.9367 136.127 11.8861 136.09 12.7595L135.976 15.1899H135.296L135.674 9.56961H136.581L137.525 12.3038C137.752 12.9873 137.94 13.6329 138.091 14.2025H138.129C138.28 13.6329 138.469 13.0253 138.734 12.3038L139.716 9.56961H140.622L140.962 15.1899H140.244L140.131 12.7215Z" fill="#E32C26"/>
<path d="M15.9396 47.4683C15.7885 47.5443 15.4108 47.6202 14.882 47.6582C14.3154 47.6962 13.7111 47.7342 13.1067 47.7342C12.3135 47.7342 11.5959 47.6582 10.9538 47.5063C10.3116 47.3544 9.78285 47.0886 9.32959 46.7088C8.87634 46.3291 8.49863 45.8354 8.272 45.1899C8.0076 44.5443 7.89429 43.7468 7.89429 42.7215V18.7215C7.89429 18.6835 8.19646 18.6456 8.8008 18.5696C9.40514 18.4937 10.0095 18.4937 10.6516 18.4937C11.2937 18.4937 11.9358 18.5696 12.5779 18.6835C13.22 18.7974 13.7866 19.0253 14.3154 19.3671C14.8442 19.7088 15.2597 20.2025 15.5618 20.8101C15.864 21.4177 16.0529 22.2531 16.0529 23.2405V47.4683H15.9396Z" fill="#E32C26"/>
<path d="M51.2556 19.2152C51.2556 21.7975 50.8023 24 49.9336 25.8228C49.0649 27.6076 47.8562 29.0886 46.3831 30.1899C44.8723 31.2912 43.1348 32.0886 41.1707 32.5443C39.2066 33.038 37.1292 33.2658 34.9007 33.2658H32.03V47.6203H23.8715V7.63292C25.6467 7.44305 27.4975 7.29115 29.3483 7.17723C31.1991 7.0633 32.8988 7.02533 34.4096 7.02533C40.2264 7.02533 44.4568 8.05065 47.1763 10.1013C49.8958 12.1899 51.2556 15.1899 51.2556 19.2152ZM42.9082 19.6329C42.9082 17.2025 42.1905 15.4557 40.7552 14.4304C39.3199 13.4051 37.4691 12.8734 35.2406 12.8734C33.9564 12.8734 32.8988 12.9494 31.9923 13.0633V27.4557H33.9564C36.8648 27.4557 39.0933 26.8861 40.6041 25.7469C42.1527 24.5696 42.9082 22.557 42.9082 19.6329Z" fill="#E32C26"/>
<path d="M81.7747 32.7721C81.7747 34.7848 81.5103 36.6835 81.0193 38.5443C80.5283 40.3671 79.6973 42 78.5642 43.4051C77.431 44.8101 75.958 45.9114 74.1827 46.7468C72.4075 47.5823 70.2167 48 67.6861 48C65.1554 48 63.0024 47.5823 61.2272 46.7848C59.4519 45.9494 58.0166 44.8481 56.9213 43.481C55.8259 42.1139 54.9949 40.519 54.4661 38.6962C53.9373 36.8734 53.7107 34.9747 53.7107 32.962C53.7107 30.9114 54.0129 28.9747 54.6172 27.1899C55.2215 25.3671 56.0903 23.7721 57.2612 22.4051C58.4321 21.038 59.9052 19.9367 61.6804 19.1392C63.4557 18.3418 65.5331 17.924 67.9505 17.924C70.4434 17.924 72.5963 18.3418 74.3338 19.1392C76.1091 19.9367 77.5444 21.038 78.6397 22.3671C79.7351 23.7342 80.5283 25.2911 81.0193 27.1139C81.5103 28.8608 81.7747 30.7595 81.7747 32.7721ZM73.6539 32.8101C73.6539 31.7468 73.5784 30.6456 73.4273 29.5823C73.2762 28.519 72.974 27.6076 72.5208 26.8101C72.0675 26.0127 71.501 25.3671 70.7455 24.8734C69.9901 24.3797 69.0458 24.1139 67.8749 24.1139C66.704 24.1139 65.7597 24.3797 64.9665 24.9114C64.1733 25.443 63.569 26.0886 63.1157 26.924C62.6625 27.7595 62.3225 28.6709 62.1337 29.6962C61.9448 30.7215 61.8315 31.7848 61.8315 32.8861C61.8315 33.9494 61.9071 35.0506 62.0959 36.1139C62.2848 37.1772 62.5869 38.1646 63.0024 39.038C63.4557 39.9114 64.06 40.5949 64.8154 41.1266C65.6086 41.6582 66.5529 41.9241 67.7238 41.9241C68.9325 41.9241 69.9146 41.6582 70.67 41.1266C71.4632 40.5949 72.0675 39.9114 72.483 39.038C72.9363 38.1646 73.2007 37.2152 73.3895 36.1139C73.5784 35.0506 73.6539 33.9494 73.6539 32.8101Z" fill="#E32C26"/>
<path d="M106.024 22.0253C106.024 22.6329 105.835 23.3544 105.457 24.1519C105.08 24.9874 104.664 25.7468 104.249 26.4684C103.833 26.1646 103.38 25.8228 102.775 25.481C102.209 25.1393 101.567 24.8355 100.849 24.5317C100.131 24.2279 99.3761 24 98.6206 23.7722C97.8274 23.5823 97.072 23.4684 96.2788 23.4684C95.8256 23.4684 95.3723 23.5063 94.9191 23.5443C94.428 23.6203 94.0125 23.7342 93.6348 23.8861C93.2571 24.076 92.9549 24.3418 92.6905 24.6836C92.4262 25.0253 92.3128 25.481 92.3128 26.0506C92.3128 27.4177 93.7481 28.4051 96.6565 29.0506C97.8652 29.2785 99.0361 29.5823 100.207 29.962C101.378 30.3418 102.436 30.8734 103.38 31.557C104.324 32.2405 105.08 33.1139 105.646 34.1393C106.213 35.1646 106.515 36.4937 106.515 38.0506C106.515 39.6456 106.213 41.0886 105.608 42.3038C105.004 43.557 104.135 44.5823 103.078 45.4177C102.02 46.2532 100.736 46.8987 99.3005 47.3544C97.8652 47.8101 96.2788 48 94.5413 48C92.8039 48 91.293 47.8861 90.0843 47.6203C88.8757 47.3544 87.8558 47.0506 87.0626 46.7089C86.4961 46.481 85.8917 46.1013 85.2496 45.6456C84.6075 45.1899 84.2676 44.5443 84.2676 43.7468C84.2676 43.0633 84.4564 42.3418 84.8719 41.6203C85.2496 40.8987 85.7407 40.1013 86.2317 39.3038C86.5716 39.6076 87.0249 39.9494 87.5914 40.2912C88.1202 40.6329 88.7623 40.9367 89.4422 41.2405C90.1221 41.5443 90.8775 41.7722 91.6707 42C92.4639 42.1899 93.2949 42.3038 94.1259 42.3038C94.6547 42.3038 95.1835 42.2658 95.75 42.1899C96.3166 42.1139 96.8076 41.962 97.2231 41.6962C97.6386 41.4684 97.9785 41.1266 98.2807 40.7468C98.5451 40.3291 98.6962 39.8355 98.6962 39.1899C98.6962 38.0127 98.2429 37.2152 97.3364 36.6836C96.4299 36.1899 95.1079 35.7722 93.2949 35.3924C92.124 35.1646 91.0286 34.8228 89.971 34.443C88.9134 34.0253 87.9314 33.5317 87.1004 32.8481C86.2695 32.2025 85.5896 31.3671 85.0985 30.3418C84.6075 29.3544 84.3431 28.1393 84.3431 26.6962C84.3431 25.2532 84.6453 24 85.2874 22.8987C85.9295 21.8355 86.7605 20.8861 87.8181 20.1266C88.8757 19.3671 90.0843 18.7975 91.4819 18.4177C92.8794 18.038 94.3147 17.8481 95.8256 17.8481C97.4119 17.8481 98.8473 17.962 100.094 18.1899C101.34 18.4177 102.436 18.7595 103.342 19.1393C105.042 19.8987 105.948 20.8481 106.024 22.0253Z" fill="#E32C26"/>
<path d="M111.878 42.7595C111.614 41.962 111.425 41.1266 111.35 40.2532C111.274 39.3797 111.236 38.5063 111.236 37.5949V9.75949C111.501 9.72152 111.803 9.68355 112.143 9.64557C112.407 9.6076 112.709 9.56962 113.049 9.56962C113.352 9.53165 113.691 9.53165 113.994 9.53165C114.636 9.53165 115.278 9.6076 115.92 9.72152C116.562 9.83544 117.129 10.0633 117.657 10.443C118.186 10.7848 118.602 11.2785 118.904 11.9241C119.206 12.5316 119.395 13.3671 119.395 14.3544V18.5696H127.667V24.6835H119.319V37.481C119.319 40.2532 120.453 41.6582 122.719 41.6582C123.285 41.6582 123.814 41.5823 124.305 41.3924C124.796 41.2025 125.249 41.0126 125.665 40.7848C126.08 40.557 126.42 40.3291 126.723 40.1013C127.025 39.8734 127.214 39.6835 127.365 39.5696C127.969 40.443 128.422 41.2025 128.724 41.8481C129.027 42.4937 129.215 43.1013 129.215 43.6709C129.215 44.2025 128.989 44.6962 128.573 45.2278C128.158 45.7215 127.554 46.2152 126.798 46.6329C126.043 47.0506 125.136 47.3924 124.041 47.6582C122.983 47.924 121.775 48.038 120.528 48.038C118.073 48.038 116.147 47.5443 114.787 46.5949C113.389 45.6076 112.445 44.3544 111.878 42.7595Z" fill="#E32C26"/>
<path d="M5.36346 14.0886L16.7326 14.1646L14.9951 5.05064L10.9914 8.73418L0.0377197 0.303802L5.36346 14.0886Z" fill="white"/>
<path d="M14.9196 4.78481L0 0L11.0292 8.39241L14.9196 4.78481Z" fill="white"/>
</g>
<defs>
<clipPath id="clip0_60_540">
<rect width="141" height="48" fill="white"/>
</clipPath>
</defs>
</svg>
