<svg width="250" height="210" viewBox="0 0 250 210" fill="none" xmlns="http://www.w3.org/2000/svg">
<path d="M250 70.9842C244.982 70.9842 240.749 73.1703 236.851 76.1079C233.178 78.8861 229.191 81.0267 224.644 81.7782C221.687 82.2564 218.73 81.9376 215.841 80.9811C211.786 79.6604 208.426 77.1554 204.954 74.7871C201.034 72.1228 196.823 70.3465 191.963 71.2119C188.155 71.8723 184.862 73.7396 181.816 76.0624C178.142 78.8406 174.155 81.0039 169.608 81.7554C165.957 82.3475 162.35 81.7554 158.923 80.2752C156.034 79.0455 153.458 77.3148 150.927 75.4703C147.835 73.1931 144.431 71.5535 140.533 71.0297C140.533 69.5951 140.533 68.206 140.533 66.498C142.325 66.9307 144.072 67.2723 145.73 67.7961C149.717 69.0485 152.943 71.6673 156.392 73.9673C160.178 76.4723 164.254 78.1118 168.891 77.4059C172.721 76.8138 176.037 74.9693 179.105 72.6465C182.6 70.005 186.34 67.8644 190.596 66.9763C194.001 66.2931 197.428 66.6347 200.788 67.7961C204.753 69.1624 208.001 71.7129 211.428 73.9901C215.213 76.5178 219.29 78.1346 223.949 77.4059C227.757 76.8138 231.028 75.0148 234.074 72.7148C237.568 70.0733 241.309 67.9782 245.565 67.0218C246.998 66.703 248.522 66.7485 250 66.6347C250 68.0921 250 69.5495 250 70.9842Z" fill="#333333"/>
<path d="M249.955 89.8533C244.94 89.8533 240.708 92.0394 236.812 94.977C233.14 97.7552 229.154 99.8958 224.609 100.647C221.654 101.126 218.698 100.807 215.81 99.8503C211.757 98.5295 208.399 96.0246 204.928 93.6563C201.01 90.9919 196.8 89.2157 191.942 90.081C188.135 90.7414 184.844 92.6087 181.799 94.9315C178.127 97.7097 174.141 99.8731 169.596 100.625C165.946 101.217 162.341 100.625 158.916 99.1443C156.027 97.9146 153.452 96.184 150.922 94.3394C147.832 92.0622 144.429 90.4226 140.533 89.8988C140.533 88.4642 140.533 87.0751 140.533 85.3672C142.324 85.7999 144.071 86.1414 145.728 86.6652C149.713 87.9177 152.937 90.5365 156.386 92.8365C160.17 95.3414 164.245 96.981 168.879 96.2751C172.708 95.683 176.022 93.8384 179.089 91.5157C182.582 88.8741 186.322 86.7335 190.576 85.8454C194.024 85.1395 197.45 85.481 200.808 86.6197C204.771 87.986 208.018 90.5365 211.444 92.8137C215.228 95.3414 219.303 96.9582 223.96 96.2295C227.766 95.6374 231.035 93.8384 234.08 91.5384C237.573 88.8969 241.312 86.8018 245.567 85.8454C247 85.5266 248.522 85.5721 250 85.4583C249.955 86.9612 249.955 88.4187 249.955 89.8533Z" fill="#333333"/>
<path d="M249.955 108.72C244.94 108.72 240.708 110.906 236.812 113.843C233.14 116.621 229.154 118.762 224.609 119.514C221.654 119.992 218.698 119.673 215.81 118.716C211.757 117.396 208.399 114.891 204.928 112.522C201.01 109.858 196.8 108.082 191.942 108.947C188.135 109.608 184.844 111.475 181.799 113.798C178.127 116.576 174.141 118.739 169.596 119.491C165.946 120.083 162.341 119.491 158.916 118.011C156.027 116.781 153.452 115.05 150.922 113.206C147.832 110.928 144.429 109.289 140.533 108.765C140.533 107.33 140.533 105.941 140.533 104.233C142.324 104.666 144.071 105.008 145.728 105.531C149.713 106.784 152.937 109.403 156.386 111.703C160.17 114.208 164.245 115.847 168.879 115.141C172.708 114.549 176.022 112.705 179.089 110.382C182.582 107.74 186.322 105.6 190.576 104.712C194.024 104.006 197.45 104.347 200.808 105.486C204.771 106.852 208.018 109.403 211.444 111.68C215.228 114.208 219.303 115.824 223.96 115.096C227.766 114.504 231.035 112.705 234.08 110.405C237.573 107.763 241.312 105.668 245.567 104.712C247 104.393 248.522 104.438 250 104.324C249.955 105.827 249.955 107.285 249.955 108.72Z" fill="#333333"/>
<path d="M249.955 127.589C244.94 127.589 240.708 129.775 236.812 132.712C233.14 135.491 229.154 137.631 224.609 138.383C221.654 138.861 218.698 138.542 215.81 137.586C211.757 136.265 208.399 133.76 204.928 131.392C201.01 128.727 196.8 126.951 191.942 127.816C188.135 128.477 184.844 130.344 181.799 132.667C178.127 135.445 174.141 137.608 169.596 138.36C165.946 138.952 162.341 138.36 158.916 136.88C156.027 135.65 153.452 133.919 150.922 132.075C147.832 129.798 144.429 128.158 140.533 127.634C140.533 126.2 140.533 124.81 140.533 123.103C142.324 123.535 144.071 123.877 145.728 124.401C149.713 125.653 152.937 128.272 156.386 130.572C160.17 133.077 164.245 134.716 168.879 134.01C172.708 133.418 176.022 131.574 179.089 129.251C182.582 126.609 186.322 124.469 190.576 123.581C194.024 122.875 197.45 123.216 200.808 124.355C204.771 125.721 208.018 128.272 211.444 130.549C215.228 133.077 219.303 134.694 223.96 133.965C227.766 133.373 231.035 131.574 234.08 129.274C237.573 126.632 241.312 124.537 245.567 123.581C247 123.262 248.522 123.307 250 123.194C249.955 124.697 249.955 126.154 249.955 127.589Z" fill="#333333"/>
<path fill-rule="evenodd" clip-rule="evenodd" d="M140.533 134.841C161.073 134.841 177.724 118.123 177.724 97.5001C177.724 76.8775 161.073 60.1596 140.533 60.1596C119.993 60.1596 103.343 76.8775 103.343 97.5001C103.343 118.123 119.993 134.841 140.533 134.841ZM140.533 141.886C164.949 141.886 184.741 122.014 184.741 97.5001C184.741 72.9865 164.949 53.1143 140.533 53.1143C116.118 53.1143 96.3256 72.9865 96.3256 97.5001C96.3256 122.014 116.118 141.886 140.533 141.886Z" fill="#333333"/>
<path fill-rule="evenodd" clip-rule="evenodd" d="M140.533 149.635C169.211 149.635 192.46 126.293 192.46 97.4995C192.46 68.7057 169.211 45.3637 140.533 45.3637C111.855 45.3637 88.6067 68.7057 88.6067 97.4995C88.6067 126.293 111.855 149.635 140.533 149.635ZM140.533 156.681C173.087 156.681 199.477 130.184 199.477 97.4995C199.477 64.8147 173.087 38.3184 140.533 38.3184C107.98 38.3184 81.5896 64.8147 81.5896 97.4995C81.5896 130.184 107.98 156.681 140.533 156.681Z" fill="#333333"/>
<path d="M73.1692 155.27H2.9982V148.569L35.9747 113.664C41.2408 108.107 45.6632 103.094 49.242 98.6274C52.872 94.1085 55.6073 89.5895 57.4478 85.0706C59.3395 80.5517 60.2853 75.4874 60.2853 69.8777C60.2853 62.5539 58.1636 56.8663 53.9201 52.8149C49.7277 48.7634 44.0271 46.7377 36.8183 46.7377C31.9613 46.7377 27.2832 47.6207 22.7841 49.3867C18.3361 51.1527 13.9904 53.7498 9.74688 57.178L5.45227 51.6462C8.57098 49.0491 11.8431 46.8676 15.2685 45.1015C18.7451 43.3355 22.2984 42.011 25.9284 41.128C29.5584 40.1931 33.1883 39.7256 36.8183 39.7256C43.2091 39.7256 48.7308 40.9722 53.3833 43.4654C58.0869 45.9066 61.7424 49.3608 64.3499 53.8277C66.9573 58.2947 68.2611 63.5408 68.2611 69.566C68.2611 75.799 67.1874 81.4607 65.0401 86.551C62.9439 91.5893 59.953 96.5238 56.0674 101.354C52.1818 106.185 47.5804 111.379 42.2633 116.937L13.0445 147.634V147.946H73.1692V155.27Z" fill="#333333"/>
<path d="M14.4489 6.48495C14.3053 5.26802 13.7232 4.3233 12.7026 3.65079C11.6819 2.97827 10.43 2.64202 8.94683 2.64202C7.86237 2.64202 6.91347 2.81815 6.10012 3.17042C5.29475 3.52269 4.66481 4.00706 4.21029 4.62353C3.76375 5.24 3.54048 5.94053 3.54048 6.72513C3.54048 7.38163 3.69597 7.94606 4.00695 8.41842C4.32591 8.88278 4.73258 9.27107 5.22697 9.58331C5.72136 9.88754 6.23967 10.1397 6.7819 10.3399C7.32413 10.532 7.8225 10.6882 8.27702 10.8082L10.7649 11.4808C11.4028 11.6489 12.1125 11.8811 12.8939 12.1773C13.6834 12.4735 14.4369 12.8778 15.1546 13.3902C15.8802 13.8946 16.4783 14.5431 16.9487 15.3357C17.4192 16.1283 17.6544 17.101 17.6544 18.2539C17.6544 19.5829 17.3075 20.7839 16.6138 21.8567C15.928 22.9295 14.9233 23.7821 13.5996 24.4146C12.2839 25.0471 10.6852 25.3633 8.8033 25.3633C7.04903 25.3633 5.52998 25.0791 4.24617 24.5107C2.97034 23.9423 1.96562 23.1497 1.23201 22.1329C0.506378 21.1161 0.0957182 19.9352 3.05176e-05 18.5902H3.06204C3.14178 19.5189 3.45276 20.2875 3.99499 20.8959C4.5452 21.4964 5.23893 21.9447 6.0762 22.241C6.92144 22.5292 7.83047 22.6733 8.8033 22.6733C9.9356 22.6733 10.9523 22.4892 11.8533 22.1209C12.7544 21.7446 13.4681 21.2242 13.9944 20.5597C14.5206 19.8872 14.7838 19.1026 14.7838 18.2059C14.7838 17.3893 14.5565 16.7248 14.102 16.2124C13.6475 15.7 13.0494 15.2837 12.3079 14.9634C11.5663 14.6432 10.7649 14.363 9.90371 14.1228L6.88955 13.2581C4.97579 12.7057 3.46074 11.9171 2.34438 10.8923C1.22802 9.86753 0.669845 8.5265 0.669845 6.86924C0.669845 5.49219 1.04063 4.29127 1.78221 3.26649C2.53177 2.2337 3.53649 1.43309 4.79638 0.86466C6.06424 0.28822 7.47962 0 9.04252 0C10.6214 0 12.0248 0.284217 13.2528 0.85265C14.4808 1.41308 15.4536 2.18166 16.1713 3.15841C16.8969 4.13515 17.2796 5.244 17.3195 6.48495H14.4489Z" fill="#333333"/>
<path d="M27.5551 25.3633C26.3909 25.3633 25.3344 25.1432 24.3854 24.7028C23.4365 24.2545 22.683 23.61 22.1248 22.7694C21.5666 21.9207 21.2876 20.8959 21.2876 19.695C21.2876 18.6382 21.4949 17.7816 21.9095 17.1251C22.3242 16.4606 22.8784 15.9402 23.5721 15.5639C24.2658 15.1876 25.0313 14.9074 25.8686 14.7232C26.7138 14.5311 27.5631 14.379 28.4163 14.2669C29.5326 14.1228 30.4377 14.0147 31.1314 13.9426C31.8331 13.8626 32.3435 13.7305 32.6624 13.5463C32.9894 13.3622 33.1528 13.0419 33.1528 12.5856V12.4895C33.1528 11.3046 32.8299 10.3839 32.184 9.72742C31.5461 9.07092 30.5772 8.74267 29.2775 8.74267C27.9299 8.74267 26.8733 9.03889 26.1078 9.63135C25.3423 10.2238 24.8041 10.8563 24.4931 11.5288L21.8138 10.5681C22.2923 9.44721 22.9302 8.57454 23.7276 7.95007C24.533 7.31758 25.4101 6.87725 26.359 6.62906C27.3159 6.37286 28.2568 6.24476 29.1818 6.24476C29.7719 6.24476 30.4497 6.31682 31.2152 6.46093C31.9886 6.59703 32.7342 6.88125 33.4519 7.31358C34.1775 7.74591 34.7795 8.39841 35.258 9.27107C35.7364 10.1437 35.9756 11.3126 35.9756 12.7777V24.931H33.1528V22.4331H33.0093C32.8179 22.8334 32.499 23.2617 32.0524 23.7181C31.6059 24.1744 31.0118 24.5627 30.2702 24.883C29.5287 25.2032 28.6236 25.3633 27.5551 25.3633ZM27.9857 22.8174C29.1021 22.8174 30.043 22.5972 30.8085 22.1569C31.582 21.7166 32.1641 21.1481 32.5548 20.4516C32.9535 19.7551 33.1528 19.0225 33.1528 18.2539V15.6599C33.0332 15.8041 32.7701 15.9362 32.3634 16.0562C31.9647 16.1683 31.5022 16.2684 30.9759 16.3565C30.4576 16.4365 29.9513 16.5086 29.4569 16.5726C28.9705 16.6287 28.5758 16.6767 28.2728 16.7168C27.5392 16.8128 26.8534 16.9689 26.2155 17.1851C25.5855 17.3933 25.0752 17.7095 24.6845 18.1338C24.3017 18.5501 24.1103 19.1186 24.1103 19.8391C24.1103 20.8239 24.4732 21.5685 25.1988 22.0728C25.9324 22.5692 26.8614 22.8174 27.9857 22.8174Z" fill="#333333"/>
<path d="M55.4929 6.48495L48.6991 24.931H45.8285L39.0346 6.48495H42.0966L47.1681 21.1842H47.3595L52.4309 6.48495H55.4929Z" fill="#333333"/>
<path d="M66.2638 25.3153C64.4935 25.3153 62.9665 24.923 61.6827 24.1384C60.4069 23.3458 59.4221 22.241 58.7284 20.8239C58.0426 19.3988 57.6997 17.7415 57.6997 15.8521C57.6997 13.9626 58.0426 12.2974 58.7284 10.8563C59.4221 9.40718 60.387 8.27832 61.6229 7.4697C62.8669 6.65308 64.3181 6.24476 65.9767 6.24476C66.9336 6.24476 67.8785 6.40489 68.8115 6.72513C69.7444 7.04537 70.5936 7.56577 71.3591 8.28632C72.1246 8.99886 72.7347 9.94359 73.1892 11.1205C73.6437 12.2974 73.8709 13.7465 73.8709 15.4678V16.6687H59.7092V14.2188H71.0003C71.0003 13.1781 70.793 12.2493 70.3783 11.4327C69.9717 10.6161 69.3896 9.97161 68.632 9.49925C67.8825 9.02689 66.9974 8.79071 65.9767 8.79071C64.8524 8.79071 63.8796 9.07092 63.0582 9.63135C62.2449 10.1838 61.6189 10.9043 61.1804 11.793C60.7418 12.6817 60.5225 13.6344 60.5225 14.6512V16.2844C60.5225 17.6775 60.7617 18.8584 61.2402 19.8271C61.7266 20.7879 62.4004 21.5204 63.2616 22.0248C64.1228 22.5212 65.1235 22.7694 66.2638 22.7694C67.0053 22.7694 67.6752 22.6653 68.2732 22.4571C68.8792 22.241 69.4015 21.9207 69.8401 21.4964C70.2787 21.0641 70.6176 20.5277 70.8568 19.8872L73.5839 20.6558C73.2968 21.5845 72.8144 22.4011 72.1366 23.1056C71.4588 23.8022 70.6215 24.3466 69.6248 24.7389C68.6281 25.1232 67.5077 25.3153 66.2638 25.3153Z" fill="#333333"/>
<path d="M12.1844 200.2C9.93639 200.2 7.94821 199.627 6.21985 198.482C4.50279 197.336 3.15851 195.754 2.18701 193.735C1.21551 191.705 0.729767 189.363 0.729767 186.709C0.729767 184.032 1.21551 181.678 2.18701 179.648C3.15851 177.607 4.50279 176.019 6.21985 174.885C7.94821 173.739 9.93639 173.166 12.1844 173.166C14.4324 173.166 16.4149 173.739 18.132 174.885C19.849 176.03 21.1933 177.618 22.1648 179.648C23.1476 181.678 23.639 184.032 23.639 186.709C23.639 189.363 23.1533 191.705 22.1818 193.735C21.2103 195.754 19.8603 197.336 18.132 198.482C16.4149 199.627 14.4324 200.2 12.1844 200.2ZM12.1844 197.427C13.9918 197.427 15.5225 196.939 16.7764 195.964C18.0303 194.988 18.9792 193.69 19.6231 192.068C20.2783 190.446 20.6059 188.659 20.6059 186.709C20.6059 184.758 20.2783 182.966 19.6231 181.332C18.9792 179.699 18.0303 178.389 16.7764 177.402C15.5225 176.416 13.9918 175.922 12.1844 175.922C10.3882 175.922 8.85757 176.416 7.59237 177.402C6.33846 178.389 5.38391 179.699 4.72872 181.332C4.08482 182.966 3.76287 184.758 3.76287 186.709C3.76287 188.659 4.08482 190.446 4.72872 192.068C5.38391 193.69 6.33846 194.988 7.59237 195.964C8.84628 196.939 10.3769 197.427 12.1844 197.427Z" fill="#333333"/>
<path d="M33.2763 183.323V199.655H30.2601V173.523H33.1916V177.624H33.4627C34.0727 176.285 35.0216 175.213 36.3094 174.408C37.6085 173.592 39.2126 173.183 41.1217 173.183C42.8726 173.183 44.409 173.552 45.7306 174.289C47.0636 175.015 48.0973 176.087 48.8315 177.505C49.5771 178.922 49.9499 180.663 49.9499 182.727V199.655H46.9337V182.915C46.9337 180.771 46.335 179.075 45.1376 177.828C43.9515 176.58 42.3587 175.956 40.3592 175.956C38.9923 175.956 37.7779 176.251 36.7161 176.841C35.6542 177.431 34.8126 178.281 34.1913 179.393C33.5813 180.493 33.2763 181.803 33.2763 183.323Z" fill="#333333"/>
<path d="M71.3129 209.455V173.523H74.2443V178.508H74.6002C74.9617 177.726 75.4587 176.926 76.0913 176.109C76.7239 175.281 77.5599 174.584 78.5991 174.017C79.6497 173.45 80.9714 173.166 82.5642 173.166C84.7105 173.166 86.5857 173.733 88.1898 174.867C89.8052 175.99 91.0591 177.567 91.9516 179.597C92.8553 181.616 93.3071 183.969 93.3071 186.657C93.3071 189.357 92.8553 191.722 91.9516 193.752C91.0591 195.782 89.8052 197.364 88.1898 198.499C86.5857 199.633 84.7218 200.2 82.5981 200.2C81.0279 200.2 79.7118 199.916 78.65 199.349C77.5994 198.782 76.7465 198.085 76.0913 197.257C75.4474 196.417 74.9504 195.601 74.6002 194.807H74.3291V209.455H71.3129ZM74.2952 186.606C74.2952 188.716 74.6058 190.587 75.2271 192.221C75.8597 193.843 76.7635 195.119 77.9383 196.049C79.1244 196.967 80.5591 197.427 82.2422 197.427C83.9706 197.427 85.4278 196.95 86.614 195.998C87.8114 195.034 88.7208 193.735 89.3421 192.102C89.9747 190.468 90.291 188.637 90.291 186.606C90.291 184.599 89.9803 182.79 89.359 181.179C88.749 179.569 87.8453 178.293 86.6479 177.351C85.4504 176.399 83.9819 175.922 82.2422 175.922C80.5478 175.922 79.1075 176.382 77.9213 177.3C76.7352 178.208 75.8315 179.467 75.2102 181.077C74.6002 182.676 74.2952 184.52 74.2952 186.606Z" fill="#333333"/>
<path d="M110.04 200.2C107.792 200.2 105.804 199.627 104.075 198.482C102.358 197.336 101.014 195.754 100.043 193.735C99.0711 191.705 98.5854 189.363 98.5854 186.709C98.5854 184.032 99.0711 181.678 100.043 179.648C101.014 177.607 102.358 176.019 104.075 174.885C105.804 173.739 107.792 173.166 110.04 173.166C112.288 173.166 114.271 173.739 115.988 174.885C117.705 176.03 119.049 177.618 120.02 179.648C121.003 181.678 121.495 184.032 121.495 186.709C121.495 189.363 121.009 191.705 120.037 193.735C119.066 195.754 117.716 197.336 115.988 198.482C114.271 199.627 112.288 200.2 110.04 200.2ZM110.04 197.427C111.847 197.427 113.378 196.939 114.632 195.964C115.886 194.988 116.835 193.69 117.479 192.068C118.134 190.446 118.462 188.659 118.462 186.709C118.462 184.758 118.134 182.966 117.479 181.332C116.835 179.699 115.886 178.389 114.632 177.402C113.378 176.416 111.847 175.922 110.04 175.922C108.244 175.922 106.713 176.416 105.448 177.402C104.194 178.389 103.24 179.699 102.584 181.332C101.94 182.966 101.619 184.758 101.619 186.709C101.619 188.659 101.94 190.446 102.584 192.068C103.24 193.69 104.194 194.988 105.448 195.964C106.702 196.939 108.233 197.427 110.04 197.427Z" fill="#333333"/>
<path d="M145.603 179.257L142.841 180.039C142.57 179.257 142.186 178.548 141.688 177.913C141.191 177.278 140.542 176.773 139.74 176.399C138.949 176.024 137.966 175.837 136.791 175.837C135.029 175.837 133.583 176.257 132.454 177.096C131.324 177.936 130.759 179.019 130.759 180.346C130.759 181.469 131.143 182.382 131.911 183.085C132.691 183.777 133.888 184.327 135.504 184.735L139.435 185.705C141.615 186.238 143.247 187.083 144.332 188.24C145.428 189.397 145.975 190.848 145.975 192.595C145.975 194.069 145.569 195.379 144.755 196.525C143.942 197.671 142.807 198.572 141.35 199.23C139.904 199.877 138.226 200.2 136.317 200.2C133.775 200.2 131.68 199.627 130.031 198.482C128.381 197.325 127.325 195.657 126.862 193.48L129.759 192.765C130.132 194.319 130.861 195.493 131.945 196.287C133.041 197.081 134.481 197.478 136.266 197.478C138.266 197.478 139.864 197.03 141.062 196.134C142.259 195.226 142.858 194.092 142.858 192.731C142.858 191.676 142.507 190.792 141.807 190.077C141.107 189.351 140.045 188.818 138.621 188.478L134.368 187.457C132.109 186.913 130.437 186.051 129.353 184.871C128.268 183.692 127.726 182.228 127.726 180.482C127.726 179.041 128.116 177.777 128.895 176.688C129.675 175.588 130.748 174.726 132.115 174.102C133.482 173.478 135.041 173.166 136.791 173.166C139.175 173.166 141.078 173.711 142.502 174.799C143.936 175.877 144.97 177.363 145.603 179.257Z" fill="#333333"/>
<path d="M162.831 173.523V176.16H150.411V173.523H162.831ZM154.291 167.263H157.324V192.833C157.324 193.922 157.511 194.778 157.883 195.402C158.256 196.015 158.742 196.451 159.341 196.712C159.939 196.962 160.578 197.086 161.255 197.086C161.651 197.086 161.99 197.064 162.272 197.018C162.554 196.962 162.803 196.905 163.018 196.848L163.662 199.587C163.368 199.701 163.006 199.803 162.577 199.894C162.148 199.996 161.617 200.047 160.984 200.047C159.877 200.047 158.81 199.803 157.782 199.315C156.765 198.827 155.929 198.102 155.274 197.137C154.619 196.173 154.291 194.977 154.291 193.548V167.263Z" fill="#333333"/>
<path d="M176.95 200.251C175.38 200.251 173.946 199.945 172.646 199.332C171.347 198.708 170.314 197.812 169.546 196.644C168.777 195.465 168.393 194.035 168.393 192.357C168.393 191.064 168.636 189.975 169.122 189.09C169.608 188.206 170.297 187.48 171.189 186.913C172.082 186.346 173.138 185.898 174.358 185.569C175.578 185.24 176.922 184.985 178.391 184.803C179.848 184.622 181.079 184.463 182.085 184.327C183.101 184.191 183.875 183.975 184.406 183.68C184.937 183.385 185.202 182.909 185.202 182.251V181.639C185.202 179.858 184.672 178.457 183.61 177.436C182.559 176.404 181.045 175.888 179.068 175.888C177.193 175.888 175.663 176.302 174.476 177.13C173.302 177.958 172.477 178.934 172.003 180.056L169.139 179.019C169.726 177.59 170.54 176.45 171.579 175.599C172.618 174.737 173.782 174.119 175.07 173.745C176.357 173.359 177.662 173.166 178.984 173.166C179.978 173.166 181.011 173.297 182.085 173.557C183.169 173.818 184.174 174.272 185.101 174.919C186.027 175.554 186.778 176.444 187.354 177.59C187.931 178.724 188.219 180.164 188.219 181.911V199.655H185.202V195.521H185.016C184.655 196.293 184.118 197.041 183.406 197.767C182.695 198.493 181.802 199.088 180.729 199.553C179.656 200.018 178.396 200.251 176.95 200.251ZM177.357 197.478C178.961 197.478 180.351 197.12 181.525 196.406C182.7 195.691 183.604 194.744 184.237 193.565C184.88 192.374 185.202 191.064 185.202 189.635V185.858C184.977 186.073 184.598 186.266 184.067 186.436C183.548 186.606 182.943 186.76 182.254 186.896C181.576 187.02 180.899 187.128 180.221 187.219C179.543 187.31 178.933 187.389 178.391 187.457C176.922 187.639 175.668 187.922 174.629 188.308C173.59 188.693 172.793 189.226 172.24 189.907C171.686 190.576 171.409 191.438 171.409 192.493C171.409 194.081 171.974 195.311 173.104 196.185C174.234 197.047 175.651 197.478 177.357 197.478Z" fill="#333333"/>
<path d="M206.172 209.999C204.398 209.999 202.845 209.767 201.512 209.302C200.179 208.848 199.055 208.224 198.14 207.43C197.225 206.636 196.513 205.746 196.005 204.759L198.479 203.126C198.851 203.784 199.348 204.43 199.97 205.066C200.602 205.701 201.421 206.228 202.427 206.648C203.443 207.067 204.692 207.277 206.172 207.277C208.476 207.277 210.334 206.699 211.746 205.542C213.17 204.385 213.881 202.587 213.881 200.149V194.262H213.61C213.26 195.056 212.757 195.85 212.102 196.644C211.447 197.427 210.588 198.079 209.527 198.601C208.476 199.122 207.171 199.383 205.612 199.383C203.534 199.383 201.687 198.867 200.071 197.835C198.467 196.803 197.202 195.328 196.276 193.412C195.361 191.484 194.903 189.187 194.903 186.521C194.903 183.879 195.35 181.554 196.242 179.546C197.146 177.539 198.405 175.973 200.021 174.85C201.636 173.728 203.517 173.166 205.663 173.166C207.256 173.166 208.578 173.45 209.628 174.017C210.679 174.573 211.52 175.264 212.153 176.092C212.797 176.92 213.3 177.726 213.661 178.508H213.966V173.523H216.914V200.336C216.914 202.548 216.446 204.368 215.508 205.797C214.57 207.226 213.294 208.281 211.679 208.962C210.063 209.653 208.227 209.999 206.172 209.999ZM205.968 196.61C207.64 196.61 209.069 196.207 210.255 195.402C211.441 194.586 212.351 193.417 212.983 191.897C213.616 190.378 213.932 188.569 213.932 186.47C213.932 184.429 213.622 182.62 213 181.043C212.379 179.455 211.475 178.208 210.289 177.3C209.114 176.382 207.674 175.922 205.968 175.922C204.229 175.922 202.76 176.393 201.563 177.334C200.365 178.276 199.461 179.546 198.851 181.145C198.241 182.733 197.936 184.508 197.936 186.47C197.936 188.467 198.247 190.23 198.868 191.761C199.49 193.281 200.399 194.472 201.596 195.334C202.794 196.185 204.251 196.61 205.968 196.61Z" fill="#333333"/>
<path d="M235.422 200.2C232.994 200.2 230.892 199.633 229.119 198.499C227.345 197.353 225.973 195.771 225.001 193.752C224.041 191.722 223.561 189.385 223.561 186.743C223.561 184.111 224.041 181.775 225.001 179.733C225.973 177.68 227.311 176.075 229.017 174.919C230.734 173.75 232.717 173.166 234.965 173.166C236.377 173.166 237.738 173.427 239.048 173.949C240.359 174.459 241.534 175.247 242.573 176.314C243.624 177.368 244.454 178.701 245.064 180.312C245.674 181.911 245.979 183.805 245.979 185.994V187.491H225.645V184.82H242.895C242.895 183.141 242.556 181.633 241.878 180.295C241.212 178.945 240.28 177.879 239.082 177.096C237.896 176.314 236.524 175.922 234.965 175.922C233.316 175.922 231.864 176.365 230.61 177.249C229.356 178.134 228.373 179.302 227.662 180.754C226.961 182.206 226.605 183.794 226.594 185.518V187.117C226.594 189.192 226.95 191.007 227.662 192.561C228.385 194.104 229.407 195.3 230.729 196.151C232.05 197.001 233.615 197.427 235.422 197.427C236.654 197.427 237.732 197.234 238.659 196.848C239.596 196.463 240.381 195.947 241.014 195.3C241.658 194.642 242.144 193.922 242.471 193.139L245.335 194.075C244.94 195.175 244.29 196.19 243.386 197.12C242.494 198.051 241.376 198.799 240.031 199.366C238.698 199.922 237.162 200.2 235.422 200.2Z" fill="#333333"/>
<path d="M222.315 58.2372V56.5079C222.315 55.3123 222.559 54.2181 223.048 53.2254C223.548 52.2219 224.271 51.4213 225.217 50.8235C226.174 50.2151 227.333 49.9108 228.694 49.9108C230.076 49.9108 231.235 50.2151 232.17 50.8235C233.106 51.4213 233.813 52.2219 234.291 53.2254C234.77 54.2181 235.009 55.3123 235.009 56.5079V58.2372C235.009 59.4328 234.765 60.5323 234.275 61.5357C233.797 62.5285 233.085 63.3291 232.138 63.9375C231.203 64.5353 230.055 64.8342 228.694 64.8342C227.312 64.8342 226.147 64.5353 225.201 63.9375C224.255 63.3291 223.537 62.5285 223.048 61.5357C222.559 60.5323 222.315 59.4328 222.315 58.2372ZM225.568 56.5079V58.2372C225.568 59.23 225.802 60.1213 226.27 60.9112C226.737 61.6905 227.545 62.0801 228.694 62.0801C229.81 62.0801 230.597 61.6905 231.054 60.9112C231.522 60.1213 231.756 59.23 231.756 58.2372V56.5079C231.756 55.5151 231.532 54.6291 231.086 53.8499C230.639 53.0599 229.842 52.6649 228.694 52.6649C227.577 52.6649 226.775 53.0599 226.286 53.8499C225.807 54.6291 225.568 55.5151 225.568 56.5079ZM206.048 39.4709V37.7416C206.048 36.546 206.292 35.4518 206.781 34.4591C207.281 33.4556 208.004 32.655 208.95 32.0572C209.907 31.4488 211.066 31.1445 212.427 31.1445C213.809 31.1445 214.968 31.4488 215.903 32.0572C216.839 32.655 217.546 33.4556 218.025 34.4591C218.503 35.4518 218.742 36.546 218.742 37.7416V39.4709C218.742 40.6665 218.498 41.766 218.009 42.7694C217.53 43.7622 216.818 44.5628 215.872 45.1712C214.936 45.769 213.788 46.0679 212.427 46.0679C211.045 46.0679 209.88 45.769 208.934 45.1712C207.988 44.5628 207.27 43.7622 206.781 42.7694C206.292 41.766 206.048 40.6665 206.048 39.4709ZM209.301 37.7416V39.4709C209.301 40.4636 209.535 41.355 210.003 42.1449C210.471 42.9242 211.279 43.3138 212.427 43.3138C213.543 43.3138 214.33 42.9242 214.787 42.1449C215.255 41.355 215.489 40.4636 215.489 39.4709V37.7416C215.489 36.7488 215.266 35.8628 214.819 35.0835C214.372 34.2936 213.575 33.8986 212.427 33.8986C211.31 33.8986 210.508 34.2936 210.019 35.0835C209.54 35.8628 209.301 36.7488 209.301 37.7416ZM207.26 64.3859L229.714 31.5929H233.351L210.896 64.3859H207.26Z" fill="#333333"/>
</svg>
